<?xml version="1.0" encoding="UTF-8" standalone="no"?>
<!-- Created with Inkscape (http://www.inkscape.org/) -->

<svg
   xmlns:dc="http://purl.org/dc/elements/1.1/"
   xmlns:cc="http://creativecommons.org/ns#"
   xmlns:rdf="http://www.w3.org/1999/02/22-rdf-syntax-ns#"
   xmlns:svg="http://www.w3.org/2000/svg"
   xmlns="http://www.w3.org/2000/svg"
   xmlns:sodipodi="http://sodipodi.sourceforge.net/DTD/sodipodi-0.dtd"
   xmlns:inkscape="http://www.inkscape.org/namespaces/inkscape"
   width="744.09448819"
   height="1052.3622047"
   id="svg2"
   version="1.1"
   inkscape:version="0.91 r13725"
   sodipodi:docname="wrap_logo.svg">
  <defs
     id="defs4" />
  <sodipodi:namedview
     id="base"
     pagecolor="#ffffff"
     bordercolor="#666666"
     borderopacity="1.0"
     inkscape:pageopacity="0.0"
     inkscape:pageshadow="2"
     inkscape:zoom="0.49497475"
     inkscape:cx="297.48523"
     inkscape:cy="840.95374"
     inkscape:document-units="px"
     inkscape:current-layer="layer1"
     showgrid="false"
     inkscape:window-width="901"
     inkscape:window-height="504"
     inkscape:window-x="196"
     inkscape:window-y="73"
     inkscape:window-maximized="0"
     showguides="true"
     inkscape:guide-bbox="true">
    <inkscape:grid
       type="xygrid"
       id="grid3755" />
  </sodipodi:namedview>
  <metadata
     id="metadata7">
    <rdf:RDF>
      <cc:Work
         rdf:about="">
        <dc:format>image/svg+xml</dc:format>
        <dc:type
           rdf:resource="http://purl.org/dc/dcmitype/StillImage" />
        <dc:title></dc:title>
      </cc:Work>
    </rdf:RDF>
  </metadata>
  <g
     inkscape:label="Layer 1"
     inkscape:groupmode="layer"
     id="layer1">
    <path
       style="fill:#d0c719;fill-opacity:1"
       d="m 426.89198,69.283518 c 17.21481,0 42.14006,-3.43637 55.97457,8.89 13.83451,12.32637 16.84556,14.59512 24.09172,39.805042 4.67763,16.27382 2.6481,33.71944 1.49162,50.37795 -3.07225,20.81514 -5.13462,41.9117 -12.05413,61.92168 -6.23548,30.42037 -13.58284,60.8792 -25.9691,89.43075 -5.06527,13.28778 -15.33912,23.27171 -28.849,26.66323 -15.50334,3.30801 -29.68022,2.91135 -46.74465,1.24591 -14.78626,-1.27468 -29.6314,-7.7918 -32.16809,-25.31211 -2.2883,-15.80472 -2.44814,-31.3409 -3.98709,-46.9115 0.2712,-12.22345 -9.59843,-31.87254 -23.26054,-17.89666 -11.9885,15.21663 -7.20204,36.24541 -10.80048,53.77767 -3.59844,17.53226 -18.47457,32.32925 -34.77445,35.82644 -16.26809,2.12031 -28.63094,2.71731 -46.02053,-0.49698 -18.07396,-3.34078 -26.93793,-12.81812 -33.62878,-26.59298 -6.73685,-13.86957 -10.49571,-27.84178 -16.21017,-43.09018 -4.88864,-13.04479 -9.27554,-26.3259 -11.65697,-40.07174 -3.32552,-15.18288 -4.36665,-30.67288 -7.49209,-45.85894 -0.77923,-16.65538 -3.73764,-34.09297 -4.30871,-50.00105 -0.35582,-9.91195 -0.41904,-19.83743 1.72314,-27.47474 2.93782,-13.524232 8.55564,-24.598302 18.22493,-31.780662 12.64781,-8.53102 33.08952,-11.60259 47.55104,-12.32486 18.33849,-0.12627 34.94286,-0.52585 53.25195,1.79446 14.10098,2.78518 21.50029,13.82094 20.71192,29.392272 -1.06365,21.00843 -18.86385,21.32348 -33.50941,21.35251 -14.64556,0.029 -41.67799,0.73393 -43.49786,19.42192 -2.88023,18.22229 -0.38467,36.76259 2.58508,54.95764 2.30841,16.30474 8.74904,35.18114 15.47418,50.2434 1.96378,11.35394 19.50871,15.47995 23.80866,4.84186 5.41476,-8.88334 8.18312,-19.06072 10.98151,-29.13082 2.83889,-10.21585 2.15907,-9.00662 6.1592,-21.82943 4.76333,-15.2693 8.1936,-27.73776 24.237,-34.14651 14.98248,-6.56505 31.6646,-5.09426 47.42438,-2.58188 14.06764,2.44948 22.74154,14.03686 24.98313,27.54206 3.16922,11.4823 2.40407,23.59284 4.92263,35.45854 2.5605,12.06331 6.37931,35.47293 22.0005,29.70057 11.4991,-4.24916 17.39709,-28.66088 22.07262,-43.97383 4.41,-20.15236 9.59637,-40.99697 6.08472,-61.67032 -1.22939,-15.82086 -17.85275,-26.14283 -32.49264,-29.17728 -12.50724,0 -35.36071,0.6747 -37.2742,-15.73806 -1.14528,-9.823532 -4.39579,-24.338092 8.51067,-31.707552 9.67605,-5.54646 25.21892,-4.87582 42.43372,-4.87582 z M 253.82431,246.1473 c 1.14992,1.69089 -1.64273,-0.31937 0,0 z"
       id="path3783"
       inkscape:connector-curvature="0"
       sodipodi:nodetypes="zzscccccscczcsssccsccccszccccsscccsscccsczcc"
       inkscape:export-filename="/home/jpakkane/workspace/meson/graphics/meson_logo_big.png"
       inkscape:export-xdpi="300"
       inkscape:export-ydpi="300" />
  </g>
</svg>
